<?xml version="1.0" standalone="no"?><!DOCTYPE svg PUBLIC "-//W3C//DTD SVG 1.1//EN" "http://www.w3.org/Graphics/SVG/1.1/DTD/svg11.dtd"><svg class="icon" height="512" viewBox="0 0 1024 1024" version="1.1" xmlns="http://www.w3.org/2000/svg"><path d="M640 661.333333C640 720.213333 592.213333 768 533.333333 768 474.453333 768 426.666667 720.213333 426.666667 661.333333L426.666667 586.666667C426.666667 569.173333 441.173333 554.666667 458.666667 554.666667 476.16 554.666667 490.666667 569.173333 490.666667 586.666667L490.666667 661.333333C490.666667 684.8 509.866667 704 533.333333 704 556.8 704 576 684.8 576 661.333333L576 507.306667C538.88 495.36 512 463.786667 512 426.666667 512 379.733333 554.666667 341.333333 608 341.333333 661.333333 341.333333 704 379.733333 704 426.666667 704 463.786667 677.12 495.36 640 507.306667L640 661.333333M352 341.333333C405.333333 341.333333 448 379.733333 448 426.666667 448 463.786667 421.12 495.36 384 507.306667L384 736C384 812.373333 446.293333 874.666667 522.666667 874.666667 599.04 874.666667 661.333333 812.373333 661.333333 736L661.333333 586.666667C661.333333 569.173333 675.84 554.666667 693.333333 554.666667 710.826667 554.666667 725.333333 569.173333 725.333333 586.666667L725.333333 736C725.333333 847.786667 634.453333 938.666667 522.666667 938.666667 410.88 938.666667 320 847.786667 320 736L320 507.306667C282.88 495.36 256 463.786667 256 426.666667 256 379.733333 298.666667 341.333333 352 341.333333M429.226667 261.546667 410.88 323.84C393.386667 314.453333 373.333333 309.333333 352 309.333333 313.173333 309.333333 278.613333 326.4 257.28 352.853333L206.08 314.453333C232.96 280.32 273.493333 256 320 247.893333L320 245.333333C320 157.013333 391.68 85.333333 480 85.333333 568.32 85.333333 640 157.013333 640 245.333333L640 247.893333C686.506667 256 727.04 280.32 753.92 314.453333L702.72 352.853333C681.386667 326.4 646.826667 309.333333 608 309.333333 586.666667 309.333333 566.613333 314.453333 549.12 323.84L530.773333 261.546667C544.853333 256 560.213333 250.453333 576 247.893333L576 245.333333C576 192 533.333333 149.333333 480 149.333333 426.666667 149.333333 384 192 384 245.333333L384 247.893333C399.786667 250.453333 415.146667 256 429.226667 261.546667M608 394.666667C584.533333 394.666667 565.333333 409.173333 565.333333 426.666667 565.333333 444.16 584.533333 458.666667 608 458.666667 631.466667 458.666667 650.666667 444.16 650.666667 426.666667 650.666667 409.173333 631.466667 394.666667 608 394.666667M352 394.666667C328.533333 394.666667 309.333333 409.173333 309.333333 426.666667 309.333333 444.16 328.533333 458.666667 352 458.666667 375.466667 458.666667 394.666667 444.16 394.666667 426.666667 394.666667 409.173333 375.466667 394.666667 352 394.666667Z" /></svg>